<?xml version="1.0" encoding="UTF-8" standalone="no"?>
<!DOCTYPE svg PUBLIC "-//W3C//DTD SVG 1.1//EN" "http://www.w3.org/Graphics/SVG/1.1/DTD/svg11.dtd">
<svg width="100%" height="100%" viewBox="0 0 36 32" version="1.1" xmlns="http://www.w3.org/2000/svg" xmlns:xlink="http://www.w3.org/1999/xlink" xml:space="preserve" xmlns:serif="http://www.serif.com/" style="fill-rule:evenodd;clip-rule:evenodd;stroke-linejoin:round;stroke-miterlimit:2;">
    <path d="M18,14.196C16.37,11.026 11.931,5.118 7.803,2.204C3.85,-0.587 2.341,-0.103 1.353,0.344C0.208,0.861 0,2.618 0,3.652C0,4.685 0.567,12.127 0.936,13.369C2.158,17.474 6.506,18.861 10.51,18.416C10.715,18.385 10.923,18.357 11.133,18.331C10.927,18.364 10.719,18.392 10.51,18.416C4.642,19.285 -0.57,21.423 6.266,29.033C13.785,36.818 16.571,27.364 18,22.57C19.43,27.364 21.076,36.477 29.6,29.033C36,22.57 31.358,19.285 25.49,18.416C25.281,18.393 25.073,18.365 24.867,18.332C25.077,18.357 25.285,18.386 25.49,18.416C29.494,18.861 33.842,17.474 35.064,13.37C35.433,12.128 36,4.686 36,3.652C36,2.618 35.792,0.861 34.647,0.344C33.659,-0.103 32.15,-0.587 28.197,2.205C24.069,5.118 19.63,11.026 18,14.196Z" style="fill-rule:nonzero;stroke:rgb(41,94,246);stroke-opacity:0;stroke-width:1px;"/>
</svg>
